<svg width="24" height="23" viewBox="0 0 24 23" fill="none" xmlns="http://www.w3.org/2000/svg">
<path d="M11.6624 1.90991C6.37818 1.91087 2.0791 6.20995 2.0791 11.4942C2.0791 16.7785 6.37819 21.0775 11.6634 21.0775C16.9467 21.0775 21.2458 16.7785 21.2467 11.4942C21.2467 6.20995 16.9476 1.91087 11.6624 1.90991V1.90991ZM11.6634 19.1609C7.43523 19.1609 3.99577 15.7214 3.99577 11.4942C3.99577 7.267 7.43523 3.82754 11.6624 3.82658C15.8906 3.82754 19.3301 7.267 19.3301 11.4942C19.3291 15.7214 15.8896 19.1609 11.6634 19.1609Z" fill="#B3B3B3"/>
<path d="M9.56875 14.911C9.63077 14.94 9.70039 14.9533 9.77016 14.9494C9.83992 14.9455 9.90719 14.9246 9.96475 14.8889L14.9482 11.7837C14.9992 11.752 15.0408 11.7096 15.0695 11.6602C15.0983 11.6108 15.1133 11.5559 15.1133 11.5001C15.1133 11.4444 15.0983 11.3894 15.0695 11.34C15.0408 11.2906 14.9992 11.2483 14.9482 11.2165L9.96475 8.11135C9.90724 8.07553 9.83994 8.05456 9.77013 8.0507C9.70033 8.04684 9.63068 8.06024 9.56873 8.08945C9.50678 8.11866 9.45489 8.16257 9.41867 8.21642C9.38246 8.27027 9.3633 8.33201 9.36328 8.39495V14.6053C9.36327 14.6683 9.38241 14.73 9.41863 14.7839C9.45485 14.8378 9.50677 14.8817 9.56875 14.911Z" fill="#B3B3B3"/>
</svg>
