<svg width="24" height="23" viewBox="0 0 24 23" fill="none" xmlns="http://www.w3.org/2000/svg">
<path d="M21.2532 11.4991C21.2522 6.21485 16.9531 1.91577 11.6689 1.91577C6.38463 1.91577 2.08555 6.21485 2.08555 11.5001C2.08555 16.7834 6.38463 21.0824 11.6689 21.0834C16.9531 21.0834 21.2522 16.7843 21.2532 11.4991V11.4991ZM4.00221 11.5001C4.00222 7.2719 7.44167 3.83244 11.6689 3.83244C15.8961 3.83244 19.3355 7.2719 19.3365 11.4991C19.3355 15.7273 15.8961 19.1667 11.6689 19.1667C7.44167 19.1658 4.00221 15.7263 4.00221 11.5001Z" fill="#B3B3B3"/>
<path d="M8.25212 9.40542C8.22309 9.46744 8.20981 9.53706 8.2137 9.60683C8.21759 9.67659 8.23851 9.74386 8.2742 9.80142L11.3794 14.7849C11.4111 14.8358 11.4535 14.8775 11.5029 14.9062C11.5523 14.9349 11.6072 14.95 11.663 14.95C11.7187 14.95 11.7737 14.9349 11.823 14.9062C11.8724 14.8775 11.9148 14.8358 11.9466 14.7849L15.0517 9.80142C15.0876 9.74391 15.1085 9.67661 15.1124 9.6068C15.1162 9.537 15.1028 9.46735 15.0736 9.4054C15.0444 9.34345 15.0005 9.29156 14.9467 9.25534C14.8928 9.21913 14.8311 9.19997 14.7681 9.19995L8.55781 9.19995C8.49483 9.19994 8.43305 9.21908 8.37916 9.2553C8.32528 9.29152 8.28135 9.34344 8.25212 9.40542Z" fill="#B3B3B3"/>
</svg>
