<svg width="24" height="23" viewBox="0 0 24 23" fill="none" xmlns="http://www.w3.org/2000/svg">
<path d="M11.6622 1.90991C6.37794 1.91087 2.07886 6.20995 2.07886 11.4942C2.07886 16.7785 6.37794 21.0775 11.6631 21.0775C16.9464 21.0775 21.2455 16.7785 21.2465 11.4942C21.2465 6.20995 16.9474 1.91087 11.6622 1.90991V1.90991ZM11.6631 19.1609C7.43498 19.1609 3.99552 15.7214 3.99552 11.4942C3.99552 7.267 7.43498 3.82754 11.6622 3.82658C15.8904 3.82754 19.3298 7.267 19.3298 11.4942C19.3289 15.7214 15.8894 19.1609 11.6631 19.1609Z" fill="#2C2C2C"/>
<path d="M9.56851 14.911C9.63052 14.94 9.70015 14.9533 9.76991 14.9494C9.83968 14.9455 9.90695 14.9246 9.96451 14.8889L14.948 11.7837C14.9989 11.752 15.0405 11.7096 15.0693 11.6602C15.098 11.6108 15.113 11.5559 15.113 11.5001C15.113 11.4444 15.098 11.3894 15.0693 11.34C15.0405 11.2906 14.9989 11.2483 14.948 11.2165L9.96451 8.11135C9.90699 8.07553 9.83969 8.05456 9.76989 8.0507C9.70008 8.04684 9.63043 8.06024 9.56848 8.08945C9.50653 8.11866 9.45464 8.16257 9.41843 8.21642C9.38222 8.27027 9.36306 8.33201 9.36304 8.39495V14.6053C9.36303 14.6683 9.38217 14.73 9.41839 14.7839C9.45461 14.8378 9.50652 14.8817 9.56851 14.911Z" fill="#2C2C2C"/>
</svg>
