<svg width="23" height="23" viewBox="0 0 23 23" fill="none" xmlns="http://www.w3.org/2000/svg">
<path d="M21.0898 11.4991C21.0889 6.21485 16.7898 1.91577 11.5056 1.91577C6.2213 1.91577 1.92222 6.21485 1.92222 11.5001C1.92222 16.7834 6.2213 21.0824 11.5056 21.0834C16.7898 21.0834 21.0889 16.7843 21.0898 11.4991V11.4991ZM3.83888 11.5001C3.83888 7.2719 7.27834 3.83244 11.5056 3.83244C15.7328 3.83244 19.1722 7.2719 19.1732 11.4991C19.1722 15.7273 15.7328 19.1667 11.5056 19.1667C7.27834 19.1658 3.83888 15.7263 3.83888 11.5001Z" fill="#B3B3B3"/>
<path d="M8.08879 9.40542C8.05976 9.46744 8.04648 9.53706 8.05037 9.60683C8.05426 9.67659 8.07518 9.74386 8.11087 9.80142L11.216 14.7849C11.2478 14.8358 11.2902 14.8775 11.3396 14.9062C11.389 14.9349 11.4439 14.95 11.4996 14.95C11.5554 14.95 11.6103 14.9349 11.6597 14.9062C11.7091 14.8775 11.7515 14.8358 11.7832 14.7849L14.8884 9.80142C14.9242 9.74391 14.9452 9.67661 14.9491 9.6068C14.9529 9.537 14.9395 9.46735 14.9103 9.4054C14.8811 9.34345 14.8372 9.29156 14.7833 9.25534C14.7295 9.21913 14.6677 9.19997 14.6048 9.19995L8.39448 9.19995C8.3315 9.19994 8.26972 9.21908 8.21583 9.2553C8.16195 9.29152 8.11802 9.34344 8.08879 9.40542Z" fill="#B3B3B3"/>
</svg>
