<svg width="278" height="278" viewBox="0 0 278 278" fill="none" xmlns="http://www.w3.org/2000/svg">
<path d="M252.969 216.629C271.187 189.919 279.476 157.672 276.396 125.487C273.316 93.3029 259.062 63.2133 236.109 40.4431C213.156 17.6728 182.953 3.66002 150.745 0.837692C118.537 -1.98463 86.3577 6.56177 59.7942 24.993C33.2307 43.4242 13.9608 70.5762 5.33038 101.735C-3.30006 132.893 -0.745997 166.09 12.5491 195.561C25.8442 225.033 49.0407 248.918 78.1109 263.069C107.181 277.22 140.289 280.743 171.687 273.027L164.899 245.405C139.956 251.535 113.654 248.736 90.5602 237.494C67.4662 226.252 49.0385 207.278 38.4766 183.865C27.9147 160.452 25.8857 134.08 32.7419 109.327C39.5981 84.5743 54.9065 63.0043 76.009 48.3621C97.1116 33.72 122.676 26.9306 148.262 29.1727C173.849 31.4148 197.843 42.5469 216.077 60.636C234.311 78.7251 245.635 102.629 248.082 128.197C250.528 153.765 243.944 179.382 229.471 200.601L252.969 216.629Z" fill="#E0333A"/>
</svg>
