<svg width="24" height="24" viewBox="0 0 24 24" fill="none" xmlns="http://www.w3.org/2000/svg">
<path d="M5.85457 19H6.81291V22H8.72957V19H9.68791C9.94207 19 10.1858 18.8946 10.3656 18.7071C10.5453 18.5196 10.6462 18.2652 10.6462 18V6C10.6462 5.73478 10.5453 5.48043 10.3656 5.29289C10.1858 5.10536 9.94207 5 9.68791 5H8.72957V2H6.81291V5H5.85457C5.60041 5 5.35665 5.10536 5.17693 5.29289C4.99721 5.48043 4.89624 5.73478 4.89624 6V18C4.89624 18.2652 4.99721 18.5196 5.17693 18.7071C5.35665 18.8946 5.60041 19 5.85457 19ZM6.81291 7H8.72957V17H6.81291V7ZM13.5212 17H14.4796V20H16.3962V17H17.3546C17.6087 17 17.8525 16.8946 18.0322 16.7071C18.2119 16.5196 18.3129 16.2652 18.3129 16V8C18.3129 7.73478 18.2119 7.48043 18.0322 7.29289C17.8525 7.10536 17.6087 7 17.3546 7H16.3962V4H14.4796V7H13.5212C13.2671 7 13.0233 7.10536 12.8436 7.29289C12.6639 7.48043 12.5629 7.73478 12.5629 8V16C12.5629 16.2652 12.6639 16.5196 12.8436 16.7071C13.0233 16.8946 13.2671 17 13.5212 17ZM14.4796 9H16.3962V15H14.4796V9Z" fill="#B3B3B3"/>
</svg>
