<svg width="29" height="29" viewBox="0 0 29 29" fill="none" xmlns="http://www.w3.org/2000/svg">
<path d="M1.8125 4.83325V6.64575C1.8125 11.6603 4.48292 16.0466 8.45833 18.4874V24.1666H26.5833V21.7499C26.5833 18.5358 20.1429 16.9166 16.9167 16.9166H16.6146C10.875 16.9166 6.04167 12.0833 6.04167 6.64575V4.83325M16.9167 4.83325C15.6348 4.83325 14.4054 5.34248 13.499 6.2489C12.5926 7.15533 12.0833 8.38471 12.0833 9.66659C12.0833 10.9485 12.5926 12.1778 13.499 13.0843C14.4054 13.9907 15.6348 14.4999 16.9167 14.4999C18.1985 14.4999 19.4279 13.9907 20.3343 13.0843C21.2408 12.1778 21.75 10.9485 21.75 9.66659C21.75 8.38471 21.2408 7.15533 20.3343 6.2489C19.4279 5.34248 18.1985 4.83325 16.9167 4.83325Z" fill="#2C2C2C"/>
</svg>
