<svg width="23" height="22" viewBox="0 0 23 22" fill="none" xmlns="http://www.w3.org/2000/svg">
<path d="M20.1248 1.8335H5.74984C5.24151 1.8335 4.75399 2.02665 4.39455 2.37047C4.0351 2.71428 3.83317 3.1806 3.83317 3.66683V6.41683H1.9165V8.25016H3.83317V10.0835H1.9165V11.9168H3.83317V13.7502H1.9165V15.5835H3.83317V18.3335C3.83317 18.8197 4.0351 19.286 4.39455 19.6299C4.75399 19.9737 5.24151 20.1668 5.74984 20.1668H20.1248C20.379 20.1668 20.6228 20.0703 20.8025 19.8983C20.9822 19.7264 21.0832 19.4933 21.0832 19.2502V2.75016C21.0832 2.50705 20.9822 2.27389 20.8025 2.10198C20.6228 1.93007 20.379 1.8335 20.1248 1.8335V1.8335ZM12.4582 4.58258C14.0375 4.58258 15.3332 5.821 15.3332 7.33258C15.3304 8.06119 15.0266 8.75922 14.4881 9.27451C13.9496 9.78981 13.2199 10.0806 12.4582 10.0835C10.8798 10.0835 9.58317 8.84325 9.58317 7.33258C9.58317 5.821 10.8798 4.58258 12.4582 4.58258ZM18.2082 16.5002H6.70817V15.8127C6.70817 13.7786 9.30046 11.6877 12.4582 11.6877C15.6159 11.6877 18.2082 13.7786 18.2082 15.8127V16.5002Z" fill="#DA2128"/>
</svg>
