<svg width="24" height="23" viewBox="0 0 24 23" fill="none" xmlns="http://www.w3.org/2000/svg">
<path d="M15.4381 9.58333H13.5214V6.70833H9.68807V9.58333H7.7714L11.6047 13.4167M18.3131 14.375H14.4797C14.4797 15.1375 14.1768 15.8688 13.6377 16.4079C13.0985 16.9471 12.3672 17.25 11.6047 17.25C10.8422 17.25 10.111 16.9471 9.5718 16.4079C9.03264 15.8688 8.72974 15.1375 8.72974 14.375H4.8964V4.79167H18.3131M18.3131 2.875H4.8964C4.38807 2.875 3.90056 3.07693 3.54111 3.43638C3.18167 3.79582 2.97974 4.28334 2.97974 4.79167V18.2083C2.97974 18.7167 3.18167 19.2042 3.54111 19.5636C3.90056 19.9231 4.38807 20.125 4.8964 20.125H18.3131C18.8214 20.125 19.3089 19.9231 19.6684 19.5636C20.0278 19.2042 20.2297 18.7167 20.2297 18.2083V4.79167C20.2297 4.28334 20.0278 3.79582 19.6684 3.43638C19.3089 3.07693 18.8214 2.875 18.3131 2.875Z" fill="#B3B3B3"/>
</svg>
