<svg width="24" height="24" viewBox="0 0 24 24" fill="none" xmlns="http://www.w3.org/2000/svg">
<path d="M10.59 12.9312C11 13.3072 11 13.9244 10.59 14.3005C10.2 14.6765 9.56002 14.6765 9.17002 14.3005C8.23339 13.3959 7.70732 12.1699 7.70732 10.8917C7.70732 9.61347 8.23339 8.38749 9.17002 7.48296L12.71 4.06939C13.648 3.16622 14.9194 2.65894 16.245 2.65894C17.5706 2.65894 18.842 3.16622 19.78 4.06939C20.7166 4.97391 21.2427 6.1999 21.2427 7.47814C21.2427 8.75637 20.7166 9.98236 19.78 10.8869L18.29 12.3237C18.3 11.533 18.17 10.7422 17.89 9.9901L18.36 9.52725C18.6404 9.25984 18.8629 8.94147 19.0148 8.59057C19.1667 8.23967 19.2449 7.8632 19.2449 7.48296C19.2449 7.10272 19.1667 6.72625 19.0148 6.37535C18.8629 6.02445 18.6404 5.70608 18.36 5.43867C18.0827 5.16835 17.7525 4.95374 17.3886 4.80728C17.0247 4.66081 16.6343 4.5854 16.24 4.5854C15.8457 4.5854 15.4553 4.66081 15.0914 4.80728C14.7275 4.95374 14.3973 5.16835 14.12 5.43867L10.59 8.8426C10.3097 9.11001 10.0871 9.42838 9.93524 9.77928C9.78335 10.1302 9.70514 10.5066 9.70514 10.8869C9.70514 11.2671 9.78335 11.6436 9.93524 11.9945C10.0871 12.3454 10.3097 12.6638 10.59 12.9312M13.41 8.8426C13.8 8.46653 14.44 8.46653 14.83 8.8426C15.7666 9.74713 16.2927 10.9731 16.2927 12.2514C16.2927 13.5296 15.7666 14.7556 14.83 15.6601L11.29 19.0737C10.352 19.9768 9.08059 20.4841 7.75502 20.4841C6.42944 20.4841 5.15804 19.9768 4.22002 19.0737C3.28339 18.1691 2.75732 16.9432 2.75732 15.6649C2.75732 14.3867 3.28339 13.1607 4.22002 12.2562L5.71002 10.8194C5.70002 11.6101 5.83002 12.4008 6.11002 13.1626L5.64002 13.6158C5.35968 13.8832 5.13712 14.2016 4.98524 14.5525C4.83335 14.9034 4.75514 15.2799 4.75514 15.6601C4.75514 16.0403 4.83335 16.4168 4.98524 16.7677C5.13712 17.1186 5.35968 17.437 5.64002 17.7044C5.91733 17.9747 6.24749 18.1893 6.61139 18.3358C6.97528 18.4822 7.36569 18.5577 7.76002 18.5577C8.15434 18.5577 8.54475 18.4822 8.90865 18.3358C9.27254 18.1893 9.6027 17.9747 9.88002 17.7044L13.41 14.3005C13.6904 14.033 13.9129 13.7147 14.0648 13.3638C14.2167 13.0129 14.2949 12.6364 14.2949 12.2562C14.2949 11.8759 14.2167 11.4995 14.0648 11.1486C13.9129 10.7977 13.6904 10.4793 13.41 10.2119C13.3129 10.1241 13.2355 10.0181 13.1826 9.90033C13.1296 9.78257 13.1023 9.65559 13.1023 9.52725C13.1023 9.3989 13.1296 9.27192 13.1826 9.15416C13.2355 9.0364 13.3129 8.93036 13.41 8.8426V8.8426Z" fill="#C1C1C1"/>
</svg>
