<svg width="23" height="22" viewBox="0 0 23 22" fill="none" xmlns="http://www.w3.org/2000/svg">
<path d="M5.70359 15.5833C5.43425 15.5833 5.20832 15.4953 5.0258 15.3193C4.84392 15.1439 4.75297 14.9263 4.75297 14.6666V10.0603C4.75297 9.80061 4.84392 9.58672 5.0258 9.41867C5.20832 9.25061 5.43425 9.16658 5.70359 9.16658C5.97293 9.16658 6.19886 9.25428 6.38138 9.42967C6.56327 9.60567 6.65421 9.82353 6.65421 10.0833V14.6895C6.65421 14.9492 6.56327 15.1631 6.38138 15.3312C6.19886 15.4992 5.97293 15.5833 5.70359 15.5833ZM11.4073 15.5833C11.138 15.5833 10.9123 15.4953 10.7305 15.3193C10.5479 15.1439 10.4567 14.9263 10.4567 14.6666V10.0603C10.4567 9.80061 10.5479 9.58672 10.7305 9.41867C10.9123 9.25061 11.138 9.16658 11.4073 9.16658C11.6766 9.16658 11.9026 9.25428 12.0851 9.42967C12.267 9.60567 12.3579 9.82353 12.3579 10.0833V14.6895C12.3579 14.9492 12.267 15.1631 12.0851 15.3312C11.9026 15.4992 11.6766 15.5833 11.4073 15.5833ZM2.82797 19.2499C2.55863 19.2499 2.33682 19.1619 2.16254 18.9859C1.98826 18.8105 1.90112 18.593 1.90112 18.3333C1.90112 18.0735 1.99238 17.856 2.1749 17.6806C2.35679 17.5046 2.5824 17.4166 2.85174 17.4166H19.9866C20.256 17.4166 20.4778 17.5046 20.652 17.6806C20.8263 17.856 20.9135 18.0735 20.9135 18.3333C20.9135 18.593 20.8222 18.8105 20.6397 18.9859C20.4578 19.1619 20.2322 19.2499 19.9628 19.2499H2.82797ZM17.111 15.5833C16.8417 15.5833 16.616 15.4953 16.4342 15.3193C16.2516 15.1439 16.1604 14.9263 16.1604 14.6666V10.0603C16.1604 9.80061 16.2516 9.58672 16.4342 9.41867C16.616 9.25061 16.8417 9.16658 17.111 9.16658C17.3803 9.16658 17.606 9.25428 17.7878 9.42967C17.9704 9.60567 18.0616 9.82353 18.0616 10.0833V14.6895C18.0616 14.9492 17.9704 15.1631 17.7878 15.3312C17.606 15.4992 17.3803 15.5833 17.111 15.5833ZM12.2629 1.32909L20.2718 5.17909C20.4778 5.28603 20.6362 5.43484 20.7471 5.6255C20.858 5.81678 20.9135 6.027 20.9135 6.25617C20.9135 6.56172 20.7988 6.81747 20.5693 7.02342C20.3393 7.22997 20.0658 7.33325 19.749 7.33325H3.08939C2.77252 7.33325 2.49526 7.22997 2.2576 7.02342C2.01995 6.81747 1.90112 6.56172 1.90112 6.25617C1.90112 6.027 1.95277 5.81678 2.05607 5.6255C2.15874 5.43484 2.32098 5.29367 2.54279 5.202L10.5517 1.32909C10.8211 1.20686 11.1063 1.14575 11.4073 1.14575C11.7083 1.14575 11.9935 1.20686 12.2629 1.32909ZM6.13137 5.49992H16.6832H6.13137ZM6.13137 5.49992H16.6832L11.4073 2.97909L6.13137 5.49992Z" fill="white"/>
</svg>
