<svg width="24" height="23" viewBox="0 0 24 23" fill="none" xmlns="http://www.w3.org/2000/svg">
<path d="M20.2295 6.97667V4.79167C20.2295 3.7375 19.367 2.875 18.3128 2.875H4.89616C4.38783 2.875 3.90032 3.07693 3.54087 3.43638C3.18143 3.79582 2.97949 4.28334 2.97949 4.79167V18.2083C2.97949 18.7167 3.18143 19.2042 3.54087 19.5636C3.90032 19.9231 4.38783 20.125 4.89616 20.125H18.3128C19.367 20.125 20.2295 19.2625 20.2295 18.2083V16.0233C20.5192 15.8561 20.76 15.616 20.9282 15.3268C21.0963 15.0376 21.1858 14.7095 21.1878 14.375V8.625C21.1878 7.91583 20.7949 7.3025 20.2295 6.97667ZM19.2712 8.625V14.375H12.5628V8.625H19.2712ZM4.89616 18.2083V4.79167H18.3128V6.70833H12.5628C11.5087 6.70833 10.6462 7.57083 10.6462 8.625V14.375C10.6462 15.4292 11.5087 16.2917 12.5628 16.2917H18.3128V18.2083H4.89616Z" fill="#B3B3B3"/>
<path d="M15.4377 12.9375C16.2317 12.9375 16.8752 12.2939 16.8752 11.5C16.8752 10.7061 16.2317 10.0625 15.4377 10.0625C14.6438 10.0625 14.0002 10.7061 14.0002 11.5C14.0002 12.2939 14.6438 12.9375 15.4377 12.9375Z" fill="#B3B3B3"/>
</svg>
