<svg width="102" height="35" viewBox="0 0 102 35" fill="none" xmlns="http://www.w3.org/2000/svg">
<g clip-path="url(#clip0_3_2278)">
<path d="M16.5445 20.9291C18.6189 20.7023 20.603 20.1628 22.4558 19.1836C23.7172 18.517 24.8337 17.6683 25.7064 16.5172C26.9575 14.8679 27.4024 12.9832 27.2882 10.9405C27.2814 10.8219 27.2524 10.5092 27.2303 10.3735C28.103 11.9455 28.4746 15.2183 26.3405 17.8401C28.8717 16.1255 30.9411 11.3219 29.1803 7.75866C29.5587 8.03183 30.0939 8.8101 30.3274 9.65709C30.532 10.3976 30.6803 11.1707 30.7229 11.9352C30.7638 12.6843 30.6394 13.4419 30.5865 14.2099C31.2087 13.2924 31.6314 12.2891 31.8325 11.193C32.245 8.9441 31.6638 6.88934 30.595 4.9411C29.5996 3.12686 28.2598 1.62359 26.5365 0.475943C26.4871 0.4433 26.4223 0.390042 26.3269 0.317884C26.4632 0.317884 26.5638 0.317884 26.649 0.317884C28.4047 0.326474 28.9706 0.276652 29.8229 0.384887C32.228 0.690696 34.328 2.97224 34.3467 5.40153C34.3808 9.52823 34.403 13.6549 34.3416 17.7799C34.3297 18.5977 33.9922 19.4378 33.6905 20.2212C32.2007 24.092 29.7002 27.1002 25.8104 28.6018C21.1058 30.4195 16.599 29.9212 12.607 26.6398C10.4627 24.8788 9.29334 22.4753 8.75811 19.7746C8.11038 16.5051 8.48879 13.356 10.2257 10.4817C12.174 7.25872 15.1092 6.00112 18.7911 6.37909C20.4291 6.54745 21.8644 7.15392 23.0456 8.31531C24.2831 9.53167 24.7161 11.0504 24.7604 12.7633C24.8269 15.2991 23.499 17.0034 21.6291 18.4207C20.1922 19.51 18.5967 20.29 16.8769 20.8122C16.7644 20.8466 16.6536 20.8878 16.5411 20.9256L16.5445 20.9291Z" fill="#DA2128"/>
<path d="M9.73141 0.314281C4.98595 3.01674 2.27573 7.41661 2.04732 12.7545C1.65357 10.9025 1.62459 8.86319 2.05073 7.01974C2.47516 5.18145 3.30527 3.53215 4.36038 1.98077C3.41607 2.77965 2.603 3.69708 1.92459 4.7193C1.253 5.72951 0.564362 6.83076 0.00527087 8.11585C0.00527087 7.35132 -0.0168882 6.26897 0.0257254 5.47867C0.189362 2.49961 2.51948 0.300537 5.48539 0.300537C6.83368 0.300537 8.26379 0.314281 9.7297 0.314281H9.73141Z" fill="#DA2128"/>
<path d="M34.3381 26.6621C34.2818 28.1963 34.5835 29.746 34.0841 31.2458C33.3477 33.4518 31.3142 34.9155 29.0028 34.9155C27.9477 34.9155 26.8653 34.9224 25.7761 34.9155C27.5267 33.9345 29.1989 32.8023 30.6426 31.4142C32.0932 30.0191 33.2523 28.3784 34.3398 26.6621H34.3381Z" fill="#DA2128"/>
<path d="M7.03806 34.9172C5.97613 34.8983 5.09318 34.9842 4.08238 34.7522C1.67386 34.199 0.052838 32.0515 0.0102244 29.5363C0.00511074 29.1893 0.0102244 28.8422 0.0460198 28.4814C0.973292 29.8095 1.99943 31.0327 3.19431 32.1065C4.4267 33.2146 5.71704 34.1131 7.16761 34.9155C7.12841 34.9155 7.09261 34.9172 7.03977 34.9172H7.03806Z" fill="#DA2128"/>
<path d="M42.9136 34.3846C42.9136 34.3846 42.9136 28.8182 42.9136 26.7549C42.9136 26.4989 43.1215 26.346 43.321 26.346C43.4829 26.346 43.6192 26.4353 43.6874 26.5865C44.6897 28.7976 45.8675 31.4056 46.7897 33.4483C46.7914 33.4535 46.7931 33.4569 46.7948 33.4603C46.8153 33.4174 46.834 33.3779 46.8528 33.3366C47.6283 31.6134 49.13 28.277 49.8988 26.571C49.9636 26.4284 50.0965 26.3408 50.2482 26.3408C50.4391 26.3408 50.6386 26.4869 50.6386 26.7325C50.6437 28.5605 50.6539 32.0842 50.6556 33.9362V34.3812L50.521 34.3829C50.4715 34.3829 50.1255 34.3829 50.1255 34.3829V27.3596C50.0914 27.4318 50.0607 27.4988 50.0369 27.5537C49.2102 29.3938 47.4954 33.2043 47.0352 34.2266C46.9925 34.3228 46.9005 34.3829 46.7948 34.3829C46.6891 34.3829 46.5988 34.3228 46.5545 34.2266L43.4812 27.4146V34.3863L42.9119 34.3846H42.9136Z" fill="#231F20"/>
<path d="M60.191 34.3829C60.191 34.3829 58.2376 29.8988 57.4279 28.0451C57.2848 27.7169 57.1399 27.3888 56.9865 27.0435L56.8876 26.8218L55.1609 30.7785C54.6819 31.8763 54.099 33.2112 53.6098 34.3039L53.574 34.3846H53.0046L56.1171 27.2462C56.2399 26.9662 56.4717 26.4422 56.6507 26.0367C56.6933 25.9405 56.7836 25.8804 56.8876 25.8804C56.9916 25.8804 57.0819 25.9405 57.1245 26.035C57.5046 26.8992 58.633 29.4831 59.2228 30.8352L60.7723 34.3812H60.1876L60.191 34.3829Z" fill="#231F20"/>
<path d="M69.0102 34.3829L68.9846 34.2781C68.8619 33.773 68.4715 32.6958 68.2363 32.1684C68.1358 31.921 67.9704 31.5567 67.6823 31.1874C67.4778 30.9073 67.113 30.4125 66.6528 30.4125H63.7227V34.3846H63.1704V34.0427C63.1704 33.0136 63.1772 28.387 63.1704 26.2566C63.1704 26.1553 63.2079 26.0608 63.2795 25.9903C63.3494 25.9199 63.4431 25.8804 63.542 25.8804H65.7221C66.3289 25.8804 67.084 25.8993 67.4045 25.9388C68.117 26.0298 68.7409 26.4181 69.1176 27.0074C69.4534 27.5331 69.5437 28.1671 69.3664 28.7443C69.1431 29.4659 68.6181 29.9779 67.8051 30.2631C67.7505 30.282 67.684 30.306 67.6039 30.3283C68.4494 31.1221 68.8448 32.2732 69.2607 33.4878C69.3409 33.7215 69.4227 33.9585 69.5079 34.1973L69.5744 34.3829H69.0102V34.3829ZM64.7846 29.8559L67.1795 29.8525C67.9704 29.8129 68.7392 29.1876 68.8858 28.4591C68.9761 28.0056 68.8602 27.5262 68.5653 27.1431C68.238 26.7205 67.7352 26.4611 67.1846 26.4353C66.7738 26.4147 66.334 26.4061 65.7971 26.4061C65.4358 26.4061 65.0727 26.4112 64.7062 26.4147C64.3806 26.4181 64.0534 26.4216 63.7227 26.4233V29.8542C64.0619 29.8542 64.4198 29.8559 64.7829 29.8559H64.7846Z" fill="#231F20"/>
<path d="M78.2438 34.3846L78.2046 34.3468C78.1773 34.3193 74.6506 30.9245 74.112 30.4108H73.1148C73.1148 30.4108 73.1148 33.0153 73.1148 33.931C73.1148 33.9499 73.1148 34.218 73.1148 34.2437L73.1182 34.3846H72.583V25.8804H73.1063C73.1063 25.8804 73.1131 26.2704 73.1131 26.2996C73.1131 27.0297 73.1131 27.7599 73.1131 28.4901V29.8542H74.1103L78.2421 25.8804H79.004L74.6029 30.1342L79.0126 34.3846H78.2438V34.3846Z" fill="#231F20"/>
<path d="M87.0307 34.3846C86.9711 34.3846 85.6126 34.3829 84.1433 34.3829C83.2058 34.3829 82.2256 34.3829 81.508 34.3829C81.404 34.3829 81.3069 34.3417 81.2336 34.2678C81.1603 34.1939 81.1211 34.096 81.1211 33.9912C81.1211 32.8899 81.1228 28.5863 81.1211 26.2635C81.1211 26.1604 81.1603 26.0642 81.2319 25.9903C81.3052 25.9165 81.4006 25.877 81.5046 25.877H87.1705V26.4336H81.6819V29.8508H85.7285C85.7285 29.8508 85.7285 30.1617 85.7285 30.2717V30.4074H81.6853V33.8228H87.1722V34.3829H87.0342L87.0307 34.3846Z" fill="#231F20"/>
<path d="M91.6586 34.3846V26.437H88.6416V25.8804L93.0308 25.8787L95.1973 25.8804V26.437H92.1973V34.3846H91.6586Z" fill="#231F20"/>
<path d="M98.9489 34.3864C97.9944 34.3864 97.12 34.0599 96.5506 33.4895C96.1944 33.1339 95.937 32.5034 95.937 31.988V31.8505H96.4995V31.988C96.4995 33.2078 97.7166 33.8658 98.862 33.8658C99.0086 33.8658 99.1569 33.8555 99.3035 33.8366C100.016 33.7404 100.544 33.517 100.962 33.1339C101.322 32.8041 101.501 32.433 101.467 32.0859C101.434 31.7526 101.211 31.452 100.822 31.2166C100.437 30.9829 100.004 30.8025 99.5864 30.629C99.4143 30.5569 99.2421 30.4847 99.0717 30.4091C98.8688 30.3198 98.6643 30.2356 98.458 30.1514C98.0541 29.9865 97.6364 29.8147 97.2478 29.5982C96.6171 29.246 96.2438 28.7358 96.1961 28.1602C96.1467 27.5692 96.445 26.9834 97.033 26.5126C97.5461 26.102 98.2279 25.8752 98.9524 25.8752C99.8353 25.8752 100.648 26.2051 101.184 26.7806C101.545 27.1706 101.785 27.5727 101.785 28.2702V28.4076H101.223V28.2702C101.223 26.9576 99.9427 26.5728 99.5507 26.4869C99.3171 26.4353 99.087 26.4096 98.8722 26.4096C98.1938 26.4096 97.6058 26.6655 97.1251 27.1706C96.8183 27.4919 96.6751 27.8544 96.7211 28.1894C96.7654 28.5124 96.9768 28.7959 97.333 29.0072C97.7302 29.2426 98.1717 29.4281 98.5978 29.6068C98.8058 29.6944 99.012 29.7803 99.2166 29.8731C99.4006 29.9573 99.5881 30.0363 99.7756 30.1171C100.217 30.3043 100.672 30.4985 101.09 30.751C101.618 31.0706 101.928 31.5001 101.988 31.9931C102.048 32.4982 101.825 33.0274 101.363 33.4878C100.785 34.0599 99.9052 34.3898 98.9472 34.3898L98.9489 34.3864Z" fill="#231F20"/>
<path d="M59.1903 19.2315V22.5112H42.9153V0.393311H59.0471V3.61461H46.2818V9.70674H57.7516V12.9796H46.2886V19.2315H59.1903Z" fill="#231F20"/>
<path d="M79.2458 0.396973V3.62171H72.2606V22.4925H68.8839V3.63889H61.8953V0.396973H79.2458Z" fill="#231F20"/>
<path d="M101.988 11.3424C101.973 11.1723 101.961 11.0023 101.949 10.8304C101.92 10.4439 101.891 10.0453 101.831 9.63814C100.996 3.96349 96.549 0 91.0143 0C89.7342 0 88.449 0.216472 87.1944 0.642542C82.8495 2.11833 79.899 6.39106 79.8529 11.2754C79.8206 14.8111 80.9916 17.7146 83.3353 19.9016C85.4797 21.9031 87.9376 22.9185 90.6393 22.9185C91.9825 22.9185 93.3904 22.6625 94.8257 22.1574C99.0768 20.6558 101.956 16.3367 101.992 11.406V11.3733L101.988 11.3424V11.3424ZM98.5399 11.4713C98.412 15.0121 97.0228 17.4208 94.287 18.8365C93.2251 19.3862 92.095 19.6645 90.9308 19.6645H90.9291C87.3956 19.6645 84.3512 17.1494 83.5279 13.5466C82.8887 10.7549 83.3762 8.27574 84.9785 6.17459C86.3967 4.31225 88.5359 3.24364 90.8456 3.24364C93.8387 3.24364 96.4791 4.96166 97.7353 7.72941C98.2791 8.92687 98.5501 10.1862 98.5399 11.4713V11.4713Z" fill="#231F20"/>
</g>
<defs>
<clipPath id="clip0_3_2278">
<rect width="102" height="34.9189" fill="white"/>
</clipPath>
</defs>
</svg>
